<svg width="174" height="23" viewBox="0 0 174 23" fill="none" xmlns="http://www.w3.org/2000/svg">
<path d="M0.97 21.97V1.09H2.14L16.72 15.28V1.09H17.83V21.97H0.97ZM22.877 1.12H23.987V14.02C23.987 15.34 24.317 16.56 24.977 17.68C25.637 18.8 26.527 19.69 27.647 20.35C28.767 21.01 29.987 21.34 31.307 21.34C32.627 21.34 33.847 21.01 34.967 20.35C36.087 19.69 36.977 18.8 37.637 17.68C38.297 16.56 38.627 15.34 38.627 14.02V1.12H39.737V14.02C39.737 15.54 39.357 16.95 38.597 18.25C37.837 19.53 36.807 20.55 35.507 21.31C34.227 22.07 32.827 22.45 31.307 22.45C29.787 22.45 28.377 22.07 27.077 21.31C25.797 20.55 24.777 19.53 24.017 18.25C23.257 16.95 22.877 15.54 22.877 14.02V1.12ZM46.1941 22H45.0841V1.12H46.2841L53.5741 13.99L60.8341 1.12H61.9441V22H60.8341V3.34L54.0841 15.25H53.0341L46.1941 3.19V22ZM68.5211 1.12H83.2211V2.23H69.6311V10.69H81.4511V11.8H69.6311V20.89H83.2211V22H68.5211V1.12ZM102.458 1.81C103.658 2.37 104.598 3.2 105.278 4.3C105.978 5.4 106.328 6.62 106.328 7.96C106.328 9.52 105.848 10.92 104.888 12.16C103.948 13.38 102.738 14.19 101.258 14.59L106.568 22H105.248L100.118 14.8L99.1581 14.83H91.6281V22H90.5181V1.12H98.4681C99.3481 1.12 100.098 1.18 100.718 1.3C101.358 1.4 101.938 1.57 102.458 1.81ZM99.4581 13.72C100.498 13.72 101.458 13.46 102.338 12.94C103.218 12.42 103.918 11.72 104.438 10.84C104.958 9.96 105.218 9 105.218 7.96C105.218 6.8 104.908 5.75 104.288 4.81C103.688 3.87 102.848 3.17 101.768 2.71C100.988 2.39 99.8881 2.23 98.4681 2.23H91.6281V13.72H99.4581ZM126.915 1.12V2.23H120.675V20.89H126.915V22H113.385V20.89H119.595V2.23H113.385V1.12H126.915ZM135.172 14.02C135.172 15.34 135.502 16.56 136.162 17.68C136.842 18.8 137.742 19.69 138.862 20.35C140.002 21.01 141.232 21.34 142.552 21.34C143.912 21.34 145.142 21.07 146.242 20.53C147.342 19.99 148.202 19.24 148.822 18.28C149.462 17.32 149.792 16.24 149.812 15.04H150.892C150.892 16.42 150.522 17.68 149.782 18.82C149.062 19.94 148.062 20.83 146.782 21.49C145.522 22.13 144.112 22.45 142.552 22.45C141.032 22.45 139.622 22.07 138.322 21.31C137.022 20.55 135.992 19.53 135.232 18.25C134.472 16.95 134.092 15.54 134.092 14.02V9.1C134.092 7.58 134.462 6.18 135.202 4.9C135.962 3.6 136.982 2.57 138.262 1.81C139.562 1.05 140.972 0.669999 142.492 0.669999C144.032 0.669999 145.432 0.999999 146.692 1.66C147.972 2.3 148.982 3.19 149.722 4.33C150.462 5.45 150.832 6.7 150.832 8.08H149.752C149.732 6.88 149.402 5.8 148.762 4.84C148.122 3.88 147.252 3.13 146.152 2.59C145.072 2.05 143.852 1.78 142.492 1.78C141.172 1.78 139.952 2.11 138.832 2.77C137.712 3.43 136.822 4.32 136.162 5.44C135.502 6.56 135.172 7.78 135.172 9.1V14.02ZM163.979 1.12H165.149L173.729 22H172.529L169.709 15.1H159.419L156.569 22H155.399L163.979 1.12ZM159.869 14.02H169.259L164.549 2.56L159.869 14.02Z" fill="#0E0E10"/>
</svg>
