<svg width="9" height="10" viewBox="0 0 9 10" fill="none" xmlns="http://www.w3.org/2000/svg">
<path d="M0.540381 8.0759C0.28654 8.32974 0.28654 8.7413 0.540381 8.99514C0.794221 9.24898 1.20578 9.24898 1.45962 8.99514L0.540381 8.0759ZM8.72107 1.46445C8.72107 1.10547 8.43005 0.814455 8.07107 0.814455H2.22107C1.86208 0.814455 1.57107 1.10547 1.57107 1.46445C1.57107 1.82344 1.86208 2.11445 2.22107 2.11445L7.42107 2.11445L7.42107 7.31445C7.42107 7.67344 7.71208 7.96445 8.07107 7.96445C8.43005 7.96445 8.72107 7.67344 8.72107 7.31445V1.46445ZM1.45962 8.99514L8.53069 1.92407L7.61145 1.00484L0.540381 8.0759L1.45962 8.99514Z" fill="#0E0E10"/>
</svg>
